<svg xmlns="http://www.w3.org/2000/svg" viewBox="0 0 512 512" role="img" aria-label="SK Admin: llave y engranaje">
<rect width="512" height="512" rx="96" fill="#102c40"/>
<polygon points="256.00,51.00 279.63,76.55 302.85,81.17 334.45,66.60 358.50,78.46 366.19,112.40 383.99,128.01 418.64,131.20 433.54,153.50 423.22,186.73 430.83,209.15 459.25,229.24 461.00,256.00 435.45,279.63 430.83,302.85 445.40,334.45 433.54,358.50 399.60,366.19 383.99,383.99 380.80,418.64 358.50,433.54 325.27,423.22 302.85,430.83 282.76,459.25 256.00,461.00 232.37,435.45 209.15,430.83 177.55,445.40 153.50,433.54 145.81,399.60 128.01,383.99 93.36,380.80 78.46,358.50 88.78,325.27 81.17,302.85 52.75,282.76 51.00,256.00 76.55,232.37 81.17,209.15 66.60,177.55 78.46,153.50 112.40,145.81 128.01,128.01 131.20,93.36 153.50,78.46 186.73,88.78 209.15,81.17 229.24,52.75" fill="#f7b538"/>
<circle cx="256" cy="256" r="154" fill="#102c40"/>
<circle cx="256" cy="256" r="136" fill="none" stroke="#42b7bb" stroke-width="11"/>
<g transform="rotate(-42 256 256)">
<path d="M218 179a79 79 0 0 1 94-60l-46 48 14 37 38 13 47-46a79 79 0 0 1-80 96l-14-1-4 103a43 43 0 1 1-86-4l8-135a78 78 0 0 1 29-51z" fill="#f7b538" stroke="#102c40" stroke-width="7" stroke-linejoin="round"/>
<circle cx="225" cy="366" r="15" fill="#102c40"/>
</g>
</svg>
